<?xml version="1.0" encoding="UTF-8"?>
<svg width="256px" height="256px" viewBox="0 0 256 256" version="1.1" xmlns="http://www.w3.org/2000/svg" xmlns:xlink="http://www.w3.org/1999/xlink">
    <title>icon plugin WP</title>
    <g id="icon-plugin-WP" stroke="none" stroke-width="1" fill="none" fill-rule="evenodd">
        <rect fill="#14B4B7" x="0" y="0" width="256" height="256"></rect>
        <g id="element_document" transform="translate(72.000000, 22.000000)" fill="#FFFFFF" fill-rule="nonzero">
            <path d="M23.25,0 L80.710155,0 L124,43.5691343 L124,132.6 C124,145.523463 113.59062,156 100.75,156 L23.25,156 C10.4093796,156 0,145.523463 0,132.6 L0,23.4 C0,10.4765369 10.4093796,0 23.25,0 Z M77.5,18.8308658 L74.289845,15.6 L23.25,15.6 C18.9697932,15.6 15.5,19.0921789 15.5,23.4 L15.5,132.6 C15.5,136.907821 18.9697932,140.4 23.25,140.4 L100.75,140.4 C105.030207,140.4 108.5,136.907821 108.5,132.6 L108.5,50.0308657 L105.289845,46.8 L85.25,46.8 C80.9697932,46.8 77.5,43.307821 77.5,39 L77.5,18.8308658 Z M38.75,109.2 L69.75,109.2 C74.0302068,109.2 77.5,112.692179 77.5,117 C77.5,121.307821 74.0302068,124.8 69.75,124.8 L38.75,124.8 C34.4697932,124.8 31,121.307821 31,117 C31,112.692179 34.4697932,109.2 38.75,109.2 Z M38.75,78 L85.25,78 C89.5302068,78 93,81.4921789 93,85.8 C93,90.107821 89.5302068,93.6 85.25,93.6 L38.75,93.6 C34.4697932,93.6 31,90.107821 31,85.8 C31,81.4921789 34.4697932,78 38.75,78 Z M38.75,46.8 L46.5,46.8 C50.7802068,46.8 54.25,50.2921789 54.25,54.6 C54.25,58.907821 50.7802068,62.4 46.5,62.4 L38.75,62.4 C34.4697932,62.4 31,58.907821 31,54.6 C31,50.2921789 34.4697932,46.8 38.75,46.8 Z" id="Combined-Shape"></path>
        </g>
        <rect id="Rectangle" stroke="#979797" fill="#FDC652" x="0.5" y="197.5" width="255" height="58"></rect>
        <text id="Template-Name" font-family="Bariol-Bold, Bariol" font-size="34" font-weight="bold" fill="#FFFFFF">
            <tspan x="20.4467773" y="243">Template Name</tspan>
        </text>
    </g>
</svg>